# xmcd
#
# Track frame offsets:
#	150
#	17131
#	38313
#	56811
#	76428
#	95538
#	119488
#	140314
#	159491
#	182114
#	202681
#	221445
#	242988
#
# Disc length: 3465 seconds
#
# Revision: 8
# Processed by: cddbd v1.5.2PL0 Copyright (c) Steve Scherf et al.
# Submitted via: EZCDAudioConverter 8.0.2.1
#
DISCID=aa0d870d
DTITLE=张学友 - 黑与白 1985 - 2004  新歌＋精选 CD2
DYEAR=2004
DGENRE=Pop
TTITLE0=失眠夜
TTITLE1=慢慢
TTITLE2=我不愿意
TTITLE3=无所谓
TTITLE4=人在雨中
TTITLE5=情愿
TTITLE6=别问
TTITLE7=心碎了无痕
TTITLE8=谁想轻轻偷走我的吻
TTITLE9=最后一封信
TTITLE10=苦恋
TTITLE11=一路上有你
TTITLE12=月半弯
EXTD=
EXTT0=
EXTT1=
EXTT2=
EXTT3=
EXTT4=
EXTT5=
EXTT6=
EXTT7=
EXTT8=
EXTT9=
EXTT10=
EXTT11=
EXTT12=
PLAYORDER=
